<svg xmlns="http://www.w3.org/2000/svg" viewBox="0 0 960 322" width="960" height="322" font-family="Segoe UI, Helvetica, Arial, sans-serif">
<rect width="960" height="322" rx="14" fill="#0d1117"/>
<defs><marker id="a" markerWidth="10" markerHeight="10" refX="8" refY="5" orient="auto"><path d="M0,0 L10,5 L0,10 z" fill="#e11d48"/></marker></defs>
<text x="165.0" y="44" fill="#8b949e" font-size="13" text-anchor="middle" letter-spacing="2">INPUTS</text>
<rect x="40" y="107.0" width="250" height="58" rx="9" fill="#161b22" stroke="#30363d" stroke-width="1.5"/>
<text x="165.0" y="132.5" fill="#e6edf3" font-size="14" text-anchor="middle">Invoice email (Make.com</text>
<text x="165.0" y="149.5" fill="#e6edf3" font-size="14" text-anchor="middle">webhook)</text>
<rect x="40" y="181.0" width="250" height="58" rx="9" fill="#161b22" stroke="#30363d" stroke-width="1.5"/>
<text x="165.0" y="215.0" fill="#e6edf3" font-size="14" text-anchor="middle">Raw invoice text</text>
<text x="480.0" y="44" fill="#8b949e" font-size="13" text-anchor="middle" letter-spacing="2">CORE</text>
<rect x="355" y="70.0" width="250" height="58" rx="9" fill="#11251a" stroke="#e11d48" stroke-width="1.5"/>
<text x="480.0" y="104.0" fill="#e6edf3" font-size="14" text-anchor="middle">AI extraction</text>
<rect x="355" y="144.0" width="250" height="58" rx="9" fill="#11251a" stroke="#e11d48" stroke-width="1.5"/>
<text x="480.0" y="178.0" fill="#e6edf3" font-size="14" text-anchor="middle">Rule-based fallback parser</text>
<rect x="355" y="218.0" width="250" height="58" rx="9" fill="#11251a" stroke="#e11d48" stroke-width="1.5"/>
<text x="480.0" y="252.0" fill="#e6edf3" font-size="14" text-anchor="middle">Invoice store</text>
<text x="795.0" y="44" fill="#8b949e" font-size="13" text-anchor="middle" letter-spacing="2">OUTPUTS</text>
<rect x="670" y="107.0" width="250" height="58" rx="9" fill="#161b22" stroke="#30363d" stroke-width="1.5"/>
<text x="795.0" y="141.0" fill="#e6edf3" font-size="14" text-anchor="middle">Accounting export</text>
<rect x="670" y="181.0" width="250" height="58" rx="9" fill="#161b22" stroke="#30363d" stroke-width="1.5"/>
<text x="795.0" y="215.0" fill="#e6edf3" font-size="14" text-anchor="middle">Dashboard + export log</text>
<path d="M290,136.0 C340,136.0 305,173.0 351,173.0" stroke="#e11d48" stroke-opacity=".7" fill="none" stroke-width="1.6" marker-end="url(#a)"/>
<path d="M290,210.0 C340,210.0 305,173.0 351,173.0" stroke="#e11d48" stroke-opacity=".7" fill="none" stroke-width="1.6" marker-end="url(#a)"/>
<path d="M605,173.0 C655,173.0 620,136.0 666,136.0" stroke="#e11d48" stroke-opacity=".7" fill="none" stroke-width="1.6" marker-end="url(#a)"/>
<path d="M605,173.0 C655,173.0 620,210.0 666,210.0" stroke="#e11d48" stroke-opacity=".7" fill="none" stroke-width="1.6" marker-end="url(#a)"/>
</svg>